<svg width="128" height="128" viewBox="0 0 128 128" fill="none" xmlns="http://www.w3.org/2000/svg">
<rect width="128" height="128" fill="#B40001"/>
<g filter="url(#filter0_d_3_3)">
<path d="M46.8818 17.1084H34.8701V7.40381H53.6567L63.3979 17.1084V26.9961L58.5273 31.8667L63.3979 36.7373V46.2954L53.6567 56H34.8701V46.2954H46.8818V35.9316H34.8701V27.4722H46.8818V17.1084ZM16.1201 7.40381H32.3066V56H16.1201V7.40381ZM84.7803 56V46.2954H96.792V17.1084H84.7803V7.40381H103.274L113.015 17.1084V46.2954L103.274 56H84.7803ZM66.0303 7.40381H82.2168V56H66.0303V7.40381ZM62.519 106.295L52.8145 116H34.2109V106.295H46.3325V67.4038H52.8145L62.519 77.1084V106.295ZM31.7207 116H25.2754L15.5342 106.295V77.1084L25.2754 67.4038H43.8423V77.1084H31.7207V116ZM102.688 67.4038L112.429 77.1084V86.6665L106.68 91.5371L112.429 96.481V106.332L102.688 116H96.2061V95.4922H84.9268V87.0327H96.2061V67.4038H102.688ZM81.6309 77.731V84.8354H65.4443V77.1084L75.1489 67.4038H93.6426V77.731H81.6309ZM65.4443 106.295V98.7881H81.6309V105.636H93.6426V116H75.1489L65.4443 106.295Z" fill="white"/>
</g>
<defs>
<filter id="filter0_d_3_3" x="11.5342" y="7.40381" width="105.481" height="116.596" filterUnits="userSpaceOnUse" color-interpolation-filters="sRGB">
<feFlood flood-opacity="0" result="BackgroundImageFix"/>
<feColorMatrix in="SourceAlpha" type="matrix" values="0 0 0 0 0 0 0 0 0 0 0 0 0 0 0 0 0 0 127 0" result="hardAlpha"/>
<feOffset dy="4"/>
<feGaussianBlur stdDeviation="2"/>
<feComposite in2="hardAlpha" operator="out"/>
<feColorMatrix type="matrix" values="0 0 0 0 0 0 0 0 0 0 0 0 0 0 0 0 0 0 0.25 0"/>
<feBlend mode="normal" in2="BackgroundImageFix" result="effect1_dropShadow_3_3"/>
<feBlend mode="normal" in="SourceGraphic" in2="effect1_dropShadow_3_3" result="shape"/>
</filter>
</defs>
</svg>
