<svg width="128" height="128" viewBox="0 0 128 128" fill="none" xmlns="http://www.w3.org/2000/svg">
<rect width="128" height="128" fill="#B40001"/>
<g filter="url(#filter0_d_3_3)">
<path d="M46.8818 17.1084H34.8701V7.40381H53.6567L63.3979 17.1084V26.9961L58.5273 31.8667L63.3979 36.7373V46.2954L53.6567 56H34.8701V46.2954H46.8818V35.9316H34.8701V27.4722H46.8818V17.1084ZM16.1201 7.40381H32.3066V56H16.1201V7.40381ZM84.7803 56V46.2954H96.792V17.1084H84.7803V7.40381H103.274L113.015 17.1084V46.2954L103.274 56H84.7803ZM66.0303 7.40381H82.2168V56H66.0303V7.40381ZM19.0703 94.2471H4.4585V67.4038H48.2573V77.1084H19.0703V94.2471ZM34.3047 116V94.2471H21.6338V85.165H40.7866L50.4912 94.9062V106.295L40.7866 116H34.3047ZM31.7412 106.295V116H14.1997L4.4585 106.295V100.839H20.6816V106.295H31.7412ZM55.9067 104.684H72.0933V116H55.9067V104.684ZM91.1318 94.2471H76.52V67.4038H120.319V77.1084H91.1318V94.2471ZM106.366 116V94.2471H93.6953V85.165H112.848L122.553 94.9062V106.295L112.848 116H106.366ZM103.803 106.295V116H86.2612L76.52 106.295V100.839H92.7432V106.295H103.803Z" fill="white"/>
</g>
<defs>
<filter id="filter0_d_3_3" x="0.458496" y="7.40381" width="126.094" height="116.596" filterUnits="userSpaceOnUse" color-interpolation-filters="sRGB">
<feFlood flood-opacity="0" result="BackgroundImageFix"/>
<feColorMatrix in="SourceAlpha" type="matrix" values="0 0 0 0 0 0 0 0 0 0 0 0 0 0 0 0 0 0 127 0" result="hardAlpha"/>
<feOffset dy="4"/>
<feGaussianBlur stdDeviation="2"/>
<feComposite in2="hardAlpha" operator="out"/>
<feColorMatrix type="matrix" values="0 0 0 0 0 0 0 0 0 0 0 0 0 0 0 0 0 0 0.25 0"/>
<feBlend mode="normal" in2="BackgroundImageFix" result="effect1_dropShadow_3_3"/>
<feBlend mode="normal" in="SourceGraphic" in2="effect1_dropShadow_3_3" result="shape"/>
</filter>
</defs>
</svg>
