<svg width="128" height="128" viewBox="0 0 128 128" fill="none" xmlns="http://www.w3.org/2000/svg">
<rect width="128" height="128" fill="#B40001"/>
<g filter="url(#filter0_d_3_3)">
<path d="M46.8818 17.1084H34.8701V7.40381H53.6567L63.3979 17.1084V26.9961L58.5273 31.8667L63.3979 36.7373V46.2954L53.6567 56H34.8701V46.2954H46.8818V35.9316H34.8701V27.4722H46.8818V17.1084ZM16.1201 7.40381H32.3066V56H16.1201V7.40381ZM84.7803 56V46.2954H96.792V17.1084H84.7803V7.40381H103.274L113.015 17.1084V46.2954L103.274 56H84.7803ZM66.0303 7.40381H82.2168V56H66.0303V7.40381ZM62.4458 106.295L52.7412 116H34.1377V106.295H46.2593V67.4038H52.7412L62.4458 77.1084V106.295ZM31.6475 116H25.2021L15.4609 106.295V77.1084L25.2021 67.4038H43.769V77.1084H31.6475V116ZM81.7041 106.295H87.8198V116H75.2588L65.5176 106.295V77.1084L75.2588 67.4038H87.8198V77.1084H81.7041V106.295ZM84.1943 94.9062V85.8242H102.981L112.502 94.7231V106.295L102.798 116H90.3833V106.295H96.9385V94.9062H84.1943ZM90.3833 77.1084V67.4038H102.798L112.502 77.1084V80.6606H96.3159V77.1084H90.3833Z" fill="white"/>
</g>
<defs>
<filter id="filter0_d_3_3" x="11.4609" y="7.40381" width="105.554" height="116.596" filterUnits="userSpaceOnUse" color-interpolation-filters="sRGB">
<feFlood flood-opacity="0" result="BackgroundImageFix"/>
<feColorMatrix in="SourceAlpha" type="matrix" values="0 0 0 0 0 0 0 0 0 0 0 0 0 0 0 0 0 0 127 0" result="hardAlpha"/>
<feOffset dy="4"/>
<feGaussianBlur stdDeviation="2"/>
<feComposite in2="hardAlpha" operator="out"/>
<feColorMatrix type="matrix" values="0 0 0 0 0 0 0 0 0 0 0 0 0 0 0 0 0 0 0.25 0"/>
<feBlend mode="normal" in2="BackgroundImageFix" result="effect1_dropShadow_3_3"/>
<feBlend mode="normal" in="SourceGraphic" in2="effect1_dropShadow_3_3" result="shape"/>
</filter>
</defs>
</svg>
