<svg width="128" height="128" viewBox="0 0 128 128" fill="none" xmlns="http://www.w3.org/2000/svg">
<rect width="128" height="128" fill="#B40001"/>
<g filter="url(#filter0_d_3_3)">
<path d="M46.8818 17.1084H34.8701V7.40381H53.6567L63.3979 17.1084V26.9961L58.5273 31.8667L63.3979 36.7373V46.2954L53.6567 56H34.8701V46.2954H46.8818V35.9316H34.8701V27.4722H46.8818V17.1084ZM16.1201 7.40381H32.3066V56H16.1201V7.40381ZM84.7803 56V46.2954H96.792V17.1084H84.7803V7.40381H103.274L113.015 17.1084V46.2954L103.274 56H84.7803ZM66.0303 7.40381H82.2168V56H66.0303V7.40381ZM33.1328 79.5986H48.6602L33.9751 116H16.8364L33.1328 79.5986ZM21.9268 84.5059H6.06982V72.2744L10.8672 67.4038H49.832V77.1084H21.9268V84.5059ZM52.2812 104.684H68.4678V116H52.2812V104.684ZM87.5063 94.2471H72.8945V67.4038H116.693V77.1084H87.5063V94.2471ZM102.741 116V94.2471H90.0698V85.165H109.223L118.927 94.9062V106.295L109.223 116H102.741ZM100.177 106.295V116H82.6357L72.8945 106.295V100.839H89.1177V106.295H100.177Z" fill="white"/>
</g>
<defs>
<filter id="filter0_d_3_3" x="2.06982" y="7.40381" width="120.857" height="116.596" filterUnits="userSpaceOnUse" color-interpolation-filters="sRGB">
<feFlood flood-opacity="0" result="BackgroundImageFix"/>
<feColorMatrix in="SourceAlpha" type="matrix" values="0 0 0 0 0 0 0 0 0 0 0 0 0 0 0 0 0 0 127 0" result="hardAlpha"/>
<feOffset dy="4"/>
<feGaussianBlur stdDeviation="2"/>
<feComposite in2="hardAlpha" operator="out"/>
<feColorMatrix type="matrix" values="0 0 0 0 0 0 0 0 0 0 0 0 0 0 0 0 0 0 0.25 0"/>
<feBlend mode="normal" in2="BackgroundImageFix" result="effect1_dropShadow_3_3"/>
<feBlend mode="normal" in="SourceGraphic" in2="effect1_dropShadow_3_3" result="shape"/>
</filter>
</defs>
</svg>
