<svg width="128" height="128" viewBox="0 0 128 128" fill="none" xmlns="http://www.w3.org/2000/svg">
<rect width="128" height="128" fill="#B40001"/>
<g filter="url(#filter0_d_3_3)">
<path d="M46.8818 17.1084H34.8701V7.40381H53.6567L63.3979 17.1084V26.9961L58.5273 31.8667L63.3979 36.7373V46.2954L53.6567 56H34.8701V46.2954H46.8818V35.9316H34.8701V27.4722H46.8818V17.1084ZM16.1201 7.40381H32.3066V56H16.1201V7.40381ZM84.7803 56V46.2954H96.792V17.1084H84.7803V7.40381H103.274L113.015 17.1084V46.2954L103.274 56H84.7803ZM66.0303 7.40381H82.2168V56H66.0303V7.40381ZM61.6768 106.295L51.9722 116H33.3687V106.295H45.4902V67.4038H51.9722L61.6768 77.1084V106.295ZM30.8784 116H24.4331L14.6919 106.295V77.1084L24.4331 67.4038H43V77.1084H30.8784V116ZM80.7886 106.295H87.8198V116H74.4897L64.7485 106.295V96.188L70.5713 91.3906L64.7485 86.6299V77.1084L74.4897 67.4038H87.8198V77.1084H80.7886V86.8496H87.8198V95.9316H80.7886V106.295ZM97.8906 77.1084H90.3833V67.4038L103.567 67.4404L113.271 77.145V86.5566L107.485 91.4272L113.271 96.2979V106.332L103.567 116.037L90.3833 116V106.295H97.8906V95.9316H90.3833V86.8496H97.8906V77.1084Z" fill="white"/>
</g>
<defs>
<filter id="filter0_d_3_3" x="10.6919" y="7.40381" width="106.58" height="116.633" filterUnits="userSpaceOnUse" color-interpolation-filters="sRGB">
<feFlood flood-opacity="0" result="BackgroundImageFix"/>
<feColorMatrix in="SourceAlpha" type="matrix" values="0 0 0 0 0 0 0 0 0 0 0 0 0 0 0 0 0 0 127 0" result="hardAlpha"/>
<feOffset dy="4"/>
<feGaussianBlur stdDeviation="2"/>
<feComposite in2="hardAlpha" operator="out"/>
<feColorMatrix type="matrix" values="0 0 0 0 0 0 0 0 0 0 0 0 0 0 0 0 0 0 0.25 0"/>
<feBlend mode="normal" in2="BackgroundImageFix" result="effect1_dropShadow_3_3"/>
<feBlend mode="normal" in="SourceGraphic" in2="effect1_dropShadow_3_3" result="shape"/>
</filter>
</defs>
</svg>
